<svg width="45" height="50" viewBox="0 0 45 50" fill="none" xmlns="http://www.w3.org/2000/svg">
<path d="M33.4444 34.185C31.1319 36.226 28.1413 37.3337 25.0556 37.2922C17.9444 37.2922 12.7222 32.0766 12.7222 24.919C12.7222 17.7613 17.7778 12.7676 25.0556 12.7676C28.1482 12.7259 31.1502 13.8107 33.5 15.8193L35.0556 17.151L41.9444 10.2708L40.2222 8.66172C36.0554 4.94367 30.6426 2.92386 25.0556 3.0022C12.2778 3.0022 3 12.2128 3 24.8635C3 37.5142 12.5 47.0022 25.0556 47.0022C30.6956 47.0777 36.1547 45.0157 40.3333 41.2317L42 39.6781L35 32.7979L33.4444 34.185Z" fill="#9EB2BB" fill-opacity="0.5"/>
<path d="M24.7224 32.3548C28.8032 32.3548 32.1113 29.0508 32.1113 24.9752C32.1113 20.8996 28.8032 17.5956 24.7224 17.5956C20.6416 17.5956 17.3335 20.8996 17.3335 24.9752C17.3335 29.0508 20.6416 32.3548 24.7224 32.3548Z" fill="#9EB2BB" fill-opacity="0.5"/>
</svg>
