<svg xmlns="http://www.w3.org/2000/svg" width="71" height="20" viewBox="0 0 71 20">
    <g fill="none" fill-rule="nonzero">
        <path fill="#2A2A2A" d="M18.289 0h3.2v20h-3.2zM32.689 13.62c0 3.06-2.574 3.305-3.34 3.305-1.912 0-2.26-1.79-2.26-2.87V6.4h-3.2v7.638c0 1.896.595 3.461 1.638 4.504.922.923 2.303 1.427 3.799 1.427 1.06 0 2.563-.33 3.363-1.061V20h3.2V6.4h-3.2v7.22zM42.289 1.6h-3.2v4.8h-2.4v3.2h2.4V20h3.2V9.6h2.4V6.4h-2.4zM54.766 15.934c-.696.626-1.616.973-2.626.973-2.226 0-3.86-1.634-3.86-3.878s1.582-3.81 3.86-3.81c.992 0 1.93.33 2.644.957l.486.418 2.157-2.157-.54-.487c-1.27-1.147-2.955-1.79-4.748-1.79-4 0-6.905 2.886-6.905 6.852 0 3.949 2.975 6.938 6.905 6.938 1.827 0 3.53-.643 4.783-1.808l.522-.487-2.191-2.155-.487.434zM68.849 7.586c-.922-.922-2.002-1.426-3.498-1.426-1.06 0-2.262.33-3.062 1.06V0h-3.2v20h3.2v-7.492c0-3.06 2.174-3.304 2.94-3.304 1.913 0 1.86 1.791 1.86 2.87V20h3.2v-7.91c0-1.896-.396-3.46-1.44-4.504"/>
        <path fill="#FF3D2E" d="M52.034 10.75a2.313 2.313 0 1 1 .003 4.626 2.313 2.313 0 0 1-.003-4.626"/>
        <path fill="#2A2A2A" d="M13.809 14.977a6.39 6.39 0 0 1-4.609 1.93c-3.565 0-6.157-2.8-6.157-6.643 0-3.86 2.592-6.66 6.157-6.66 1.722 0 3.357.677 4.592 1.912l.486.487 2.14-2.139-.47-.487C14.174 1.55 11.774.56 9.2.56 3.948.56 0 4.734 0 10.28c0 5.531 3.966 9.688 9.2 9.688 2.592 0 4.992-1.008 6.766-2.834l.47-.488-2.122-2.173-.505.504z"/>
    </g>
</svg>
